<?xml version="1.0" encoding="UTF-8"?>
<svg id="Layer_1" data-name="Layer 1" xmlns="http://www.w3.org/2000/svg" version="1.1" viewBox="0 0 500 145.5">
  <defs>
    <style>
      .cls-1 {
        fill: #000;
        stroke-width: 0px;
      }
    </style>
  </defs>
  <path class="cls-1" d="M5.8,15.5h34.9c.4,0,2.7,8.9,6.7,26.7.8,2.4,2.5,9.4,5.1,20.9h.5l11.4-47.6h35.5v81.1h-23.5v-51.8c-.4,0-1.7,4.6-3.9,13.9-.3.8-3.8,13.4-10.5,37.9h-18.4c-.3,0-1.7-4.9-4.2-14.6l-10.2-37.2h-.2v51.8H5.4V16c0-.3.2-.5.5-.5Z"/>
  <g>
    <path class="cls-1" d="M188.4,15.5h34.9c.4,0,2.7,8.9,6.7,26.7.8,2.4,2.5,9.4,5.1,20.9h.5l11.4-47.6h35.5v81.1h-23.5v-51.8c-.4,0-1.7,4.6-3.9,13.9-.3.8-3.8,13.4-10.5,37.9h-18.4c-.3,0-1.7-4.9-4.2-14.6l-10.2-37.2h-.2v51.8h-23.7V16c0-.3.2-.5.5-.5Z"/>
    <path class="cls-1" d="M325.5,15.3c13.3,0,22.3,3.9,27,11.6,3.6,4.5,5.3,10,5.3,16.5v1.4c0,13.5-7.4,22.5-22.1,27-4.1.9-8.5,1.4-13.2,1.4h-12v23.5h-22.5V15.3h37.5ZM310.5,34.3v19.5h10.6c7.3,0,11.5-.9,12.5-2.6,1.2-1.9,1.9-4,1.9-6.3,0-7.1-4.6-10.7-13.7-10.7h-11.3Z"/>
    <path class="cls-1" d="M384.2,15.3v61.3h35.5v20h-58.1V15.3h22.5Z"/>
    <path class="cls-1" d="M425.6,96.6V15.3h23.2v81.3h-23.2Z"/>
  </g>
  <path class="cls-1" d="M181.8,50.2v10.1c0,18.5-15.1,33.6-33.6,33.6h-7.9c-18.5,0-33.6-15.1-33.6-33.6v-10.1c0-18.5,15.1-33.6,33.6-33.6h7.9c18.5,0,33.6,15.1,33.6,33.6ZM168.3,50.2c0-11.1-9.1-20.2-20.2-20.2h-7.9c-11.1,0-20.2,9.1-20.2,20.2v10.1c0,11.1,9.1,20.2,20.2,20.2h7.9c11.1,0,20.2-9.1,20.2-20.2v-10.1Z"/>
  <g>
    <path class="cls-1" d="M0,136.6h3.9c.3,3.4,2.7,5,6.6,5s6.2-1.8,6.2-4.8-1.7-3.5-5.8-4.7l-2-.6c-5.9-1.7-8.4-4-8.4-7.7s3.9-7.8,9.9-7.8,9.4,2.9,9.8,7.8h-3.9c-.3-2.8-2.5-4.5-5.8-4.5s-6,1.6-6,4.2,1.4,3.6,5.6,4.8l2,.6c6,1.8,8.6,4,8.6,7.7s-3.9,8.3-10.2,8.3S.3,141.8,0,136.6Z"/>
    <path class="cls-1" d="M26.9,139.2c0-3.8,2.6-5.6,6.4-6.3l5.3-1c.7-.1,1.1-.5,1.1-1v-.3c0-1.9-1.7-3.3-4-3.3s-3.7,1-4.2,2.8h-3.9c.5-3.5,3.6-6.3,8.3-6.3s7.9,2.6,7.9,6.6v13.8h-3.7v-.9c0-.8.1-1.5.4-2.2l.3-.6h0s-.6,1-.6,1c-1.4,2.3-4.2,3.3-6.8,3.3-3.8,0-6.4-2.3-6.4-5.6ZM39.8,137.5v-2.9l-5.5,1c-2.3.4-3.4,1.4-3.4,3.3s1.5,2.7,3.5,2.7,5.4-1.7,5.4-4.2Z"/>
    <path class="cls-1" d="M56,140.8l-.5-1.1h0s.1.6.1.6c.3,1,.5,1.6.5,2.4v1.6h-3.9v-27.8h3.9v11.1h.2c1.1-2.5,3.4-3.8,5.8-3.8,4.8,0,8,4,8,10v1c0,5.8-3.2,10-8,10s-4.9-1.5-6-4.1ZM66.1,134.9v-1.2c0-4.1-2.3-6.8-4.9-6.8s-5.1,2.5-5.1,6.3v2.2c0,3.7,2.2,6.3,5.1,6.3s4.9-2.7,4.9-6.8Z"/>
    <path class="cls-1" d="M76.1,134.9v-1.1c0-5.6,3.9-9.9,9.2-9.9s9.2,4.1,9.2,9.9v1.4h-14.4v.3c0,3.6,2.1,6.3,5.2,6.3s4.1-1.5,4.9-4h4c-1,4.4-4.3,7.1-8.9,7.1s-9.2-4.1-9.2-10ZM90.5,132.3c-.4-3.2-2.5-5.4-5.2-5.4s-4.8,2.1-5.2,5.4h10.4Z"/>
    <path class="cls-1" d="M101.2,144.3v-19.9h3.9v.7c0,.7-.2,1.3-.5,2.1l-.2.4h.1c0,0,.5-.7.5-.7,1.2-1.9,3.4-3,5.5-3s4.9,1.3,6,3.5h.1c1.3-2.1,3.6-3.5,6.3-3.5,4.4,0,6.9,3,6.9,8.3v12.2h-3.9v-12.2c0-2.9-1.3-5.1-3.9-5.1s-4.6,2.1-4.6,5.4v11.9h-3.9v-12.2c0-2.9-1.3-5.1-3.9-5.1s-4.6,2.1-4.6,5.4v11.9h-3.9Z"/>
    <path class="cls-1" d="M136.9,134.8v-1c0-5.6,3.9-9.9,9.2-9.9s9.2,4.1,9.2,9.9v1c0,5.9-3.7,10-9.2,10s-9.2-4.1-9.2-10ZM151.3,135.3v-1.8c0-3.6-2.1-6.5-5.2-6.5s-5.2,2.9-5.2,6.5v1.8c0,3.6,2.1,6.4,5.2,6.4s5.2-2.9,5.2-6.4Z"/>
    <path class="cls-1" d="M161.3,139.3h4.1c.4,1.5,1.9,2.5,4.2,2.5s4.2-1.2,4.2-2.9-.8-2.1-3.5-2.7l-3.2-.7c-3.7-.8-5.4-2.6-5.4-5.6s3.1-6.1,7.9-6.1,7.5,2,7.7,5.5h-3.9c-.3-1.5-1.7-2.4-3.8-2.4s-3.9,1-3.9,2.8,1,2.1,3.5,2.7l3.1.6c3.7.8,5.7,2.7,5.7,5.5s-3.2,6.3-8.3,6.3-7.9-2.1-8.3-5.5Z"/>
    <path class="cls-1" d="M194.7,134.9v-1c0-6,3.2-10,8-10s4.7,1.3,5.9,3.8h.1v-11.1h3.9v27.8h-3.9v-1.5c0-1,.2-1.8.5-2.7v-.4c0,0,0,0,0,0l-.5,1.1c-1.1,2.6-3.5,4.1-6,4.1-4.8,0-8-4.2-8-10ZM208.6,135.4v-2.2c0-3.8-2.1-6.3-5.1-6.3s-4.9,2.7-4.9,6.8v1.2c0,4.1,2.2,6.8,4.9,6.8s5.1-2.6,5.1-6.3Z"/>
    <path class="cls-1" d="M219.7,134.9v-1.1c0-5.6,3.9-9.9,9.2-9.9s9.2,4.1,9.2,9.9v1.4h-14.4v.3c0,3.6,2.1,6.3,5.2,6.3s4.1-1.5,4.9-4h4c-1,4.4-4.3,7.1-8.9,7.1s-9.2-4.1-9.2-10ZM234.1,132.3c-.4-3.2-2.5-5.4-5.2-5.4s-4.8,2.1-5.2,5.4h10.4Z"/>
    <path class="cls-1" d="M255.9,144.3v-19.9h3.9v.8c0,.8-.2,1.4-.5,2.2l-.2.4h.1c0,0,.5-.7.5-.7,1.2-1.9,3.4-3.2,5.7-3.2,4.5,0,7,3,7,8.5v12h-3.9v-12.1c0-3.4-1.3-5.2-4.1-5.2s-4.7,2.2-4.7,5.6v11.7h-3.9Z"/>
    <path class="cls-1" d="M279.5,134.8v-1c0-5.6,3.9-9.9,9.2-9.9s9.2,4.1,9.2,9.9v1c0,5.9-3.7,10-9.2,10s-9.2-4.1-9.2-10ZM293.9,135.3v-1.8c0-3.6-2.1-6.5-5.2-6.5s-5.2,2.9-5.2,6.5v1.8c0,3.6,2.1,6.4,5.2,6.4s5.2-2.9,5.2-6.4Z"/>
    <path class="cls-1" d="M304.7,144.3v-19.9h3.9v.8c0,.9-.1,1.5-.4,2.4l-.2.5h0s.5-.8.5-.8c.7-1.3,1.8-2.4,3.1-2.9.7-.3,1.5-.5,2.5-.6h1.2s0,3.7,0,3.7h-1.8c-3.4,0-4.9,3-4.9,6.2v10.5h-3.9Z"/>
    <path class="cls-1" d="M322.3,144.3v-19.9h3.9v.7c0,.7-.2,1.3-.5,2.1l-.2.4h.1c0,0,.5-.7.5-.7,1.2-1.9,3.4-3,5.5-3s4.9,1.3,6,3.5h.1c1.3-2.1,3.6-3.5,6.3-3.5,4.4,0,6.9,3,6.9,8.3v12.2h-3.9v-12.2c0-2.9-1.3-5.1-3.9-5.1s-4.6,2.1-4.6,5.4v11.9h-3.9v-12.2c0-2.9-1.3-5.1-3.9-5.1s-4.6,2.1-4.6,5.4v11.9h-3.9Z"/>
    <path class="cls-1" d="M357.6,139.2c0-3.8,2.6-5.6,6.4-6.3l5.3-1c.7-.1,1.1-.5,1.1-1v-.3c0-1.9-1.7-3.3-4-3.3s-3.7,1-4.2,2.8h-3.9c.5-3.5,3.6-6.3,8.3-6.3s7.9,2.6,7.9,6.6v13.8h-3.7v-.9c0-.8.1-1.5.4-2.2l.3-.6h0s-.6,1-.6,1c-1.4,2.3-4.2,3.3-6.8,3.3-3.8,0-6.4-2.3-6.4-5.6ZM370.4,137.5v-2.9l-5.5,1c-2.3.4-3.4,1.4-3.4,3.3s1.5,2.7,3.5,2.7,5.4-1.7,5.4-4.2Z"/>
    <path class="cls-1" d="M392.2,144.6c-3,.6-5.6.1-6.9-1.2-1.1-1-1.5-2.4-1.5-4.4v-11.1h-3v-3.5h1.8c.9,0,1.3-.5,1.3-1.5v-3.1l3.9-1.1v4c0,.9-.4,1.4-.9,1.6h0c0,0,5.2,0,5.2,0v3.5h-4.3v10.3c0,2.7,1.4,3.5,4.5,3.1v3.3Z"/>
    <path class="cls-1" d="M399.3,120.6v-4.2h3.9v4.2h-3.9ZM399.3,144.2v-19.9h3.9v19.9h-3.9Z"/>
    <path class="cls-1" d="M417.2,144.3l-7.2-19.9h3.8l5.9,16.6h.2l5.9-16.6h3.8l-7.2,19.9h-5.2Z"/>
    <path class="cls-1" d="M434.4,139.2c0-3.8,2.6-5.6,6.4-6.3l5.3-1c.7-.1,1.1-.5,1.1-1v-.3c0-1.9-1.7-3.3-4-3.3s-3.7,1-4.2,2.8h-3.9c.5-3.5,3.6-6.3,8.3-6.3s7.9,2.6,7.9,6.6v13.8h-3.7v-.9c0-.8.1-1.5.4-2.2l.3-.6h0s-.6,1-.6,1c-1.4,2.3-4.2,3.3-6.8,3.3-3.8,0-6.4-2.3-6.4-5.6ZM447.3,137.5v-2.9l-5.5,1c-2.3.4-3.4,1.4-3.4,3.3s1.5,2.7,3.5,2.7,5.4-1.7,5.4-4.2Z"/>
  </g>
  <path class="cls-1" d="M479.1,22.5V6.3h6.9c3.6,0,5.7,1.6,5.7,5s-1.1,4-3.1,4.6l3.2,6.7h-3.3l-3-6.3h-3.1v6.3h-3.3ZM482.3,13.4h3.5c1.6,0,2.5-.6,2.5-2.2s-.9-2.2-2.5-2.2h-3.5v4.4Z"/>
  <path class="cls-1" d="M148.1,97.4h-7.9c-20.5,0-37.1-16.6-37.1-37.1v-10.1c0-20.5,16.6-37.1,37.1-37.1h7.9c20.5,0,37.1,16.6,37.1,37.1v10.1c0,20.5-16.6,37.1-37.1,37.1ZM140.3,20c-16.6,0-30.2,13.5-30.2,30.2v10.1c0,16.6,13.5,30.2,30.2,30.2h7.9c16.6,0,30.1-13.5,30.1-30.2v-10.1c0-16.6-13.5-30.2-30.1-30.2h-7.9ZM148.1,84h-7.9c-13,0-23.7-10.6-23.7-23.7v-10.1c0-13,10.6-23.7,23.7-23.7h7.9c13,0,23.7,10.6,23.7,23.7v10.1c0,13-10.6,23.7-23.7,23.7ZM140.3,33.5c-9.2,0-16.7,7.5-16.7,16.7v10.1c0,9.2,7.5,16.7,16.7,16.7h7.9c9.2,0,16.7-7.5,16.7-16.7v-10.1c0-9.2-7.5-16.7-16.7-16.7h-7.9Z"/>
  <path class="cls-1" d="M484.8,29.1c-8.4,0-15.2-6.5-15.2-14.4s6.8-14.4,15.2-14.4,15.2,6.5,15.2,14.4-6.8,14.4-15.2,14.4ZM484.8,1.7c-7.6,0-13.8,5.8-13.8,13s6.2,13,13.8,13,13.8-5.8,13.8-13-6.2-13-13.8-13Z"/>
</svg>